<?xml version="1.0" encoding="utf-8"?>
<!-- Generator: Adobe Illustrator 23.1.0, SVG Export Plug-In . SVG Version: 6.00 Build 0)  -->
<svg version="1.1" id="Слой_1" xmlns="http://www.w3.org/2000/svg" xmlns:xlink="http://www.w3.org/1999/xlink" x="0px" y="0px"
	 viewBox="0 0 1700.7873535 1700.7873535" style="enable-background:new 0 0 1700.7873535 1700.7873535;" xml:space="preserve">
<style type="text/css">
	.st0{fill:#6C757D;}
	.st1{display:none;}
	.st2{display:inline;fill:#6C757D;stroke:#6C757D;stroke-width:12;stroke-miterlimit:10;}
	.st3{fill:#17A2B8;}
	.st4{fill:#28A745;}
	.st5{fill:none;stroke:#6C757D;stroke-width:84;stroke-miterlimit:10;}
</style>
<polygon class="st0" points="536,599 493,515 581,424 668,469 "/>
<polygon class="st0" points="494.3351746,884.7427979 405,852 405,727 493.9383545,695.2333374 "/>
<polygon class="st0" points="667.9691772,1115.350708 579.6404419,1153.6003418 494.3499451,1069.87146 534.105957,981.206543 "/>
<polygon class="st0" points="954.4136353,1154.8990479 919.4815063,1244.5915527 799.9743042,1246.3348389 
	764.9054565,1155.7137451 "/>
<polygon class="st0" points="1181.536499,980.2942505 1220.5322266,1068.2961426 1137.5280762,1154.2921143 
	1048.5300293,1115.2878418 "/>
<polygon class="st0" points="1222,697 1312,725 1311,853 1228,880 "/>
<polygon class="st0" points="1048.0444336,463.2521667 1136.5233154,425.3511047 1221.4829102,509.4156494 
	1181.3775635,597.9230957 "/>
<g class="st1">
	<path class="st2" d="M1160.7890625,803.019043c-23.6582031-31.6362305-51.9736328-59.2822266-84.1591797-82.1704102
		c-32.6308594-23.2041016-68.4912109-40.9780273-106.5869141-52.8266602
		c-2.1920166-0.6818237-4.3902588-1.3411255-6.5933838-1.9822998l62.1470947,96.1645508
		C1116.1101074,818.798645,1173,918.4315186,1173,1029.5c0,173.9677734-141.5322266,315.5-315.5,315.5
		c-173.9672852,0-315.5-141.5322266-315.5-315.5c0-54.7851563,14.2490234-108.734375,41.2055664-156.015625
		c4.1162109-7.21875,8.5776367-14.3681641,13.2592773-21.2480469
		c23.1445313-34.0087891,52.2407227-62.8071289,86.4814453-85.5952148c2.8150635-1.8733521,5.6832275-3.7095947,8.5761108-5.5030518
		l66.6063843-96.882019c-28.3624268,7.6921997-55.7974854,18.6641846-81.6116943,32.7424927
		c-3.1835938,1.7363281-6.3828125,3.5415039-9.5078125,5.3647461c-6.409668,3.7397461-12.7919922,7.7207031-18.9682617,11.831543
		c-41.0419922,27.3144531-75.9179688,61.8330078-103.659668,102.597168
		c-5.6152344,8.2519531-10.9663086,16.8266602-15.9047852,25.487793C496.1088867,899.0517578,479,963.7910156,479,1029.5
		c0,51.0830078,10.0117188,100.6552734,29.7573242,147.3388672c19.0654297,45.0751953,46.3520508,85.5507813,81.1030273,120.3007813
		c34.7504883,34.7509766,75.2255859,62.0380859,120.3007813,81.1025391C756.8447266,1397.9882813,806.4169922,1408,857.5,1408
		s100.6552734-10.0117188,147.3388672-29.7578125c45.0751953-19.0644531,85.5507813-46.3515625,120.3007813-81.1025391
		c34.7509766-34.75,62.0380859-75.2255859,81.1025391-120.3007813C1225.9882813,1130.1552734,1236,1080.5830078,1236,1029.5
		C1236,947.1269531,1209.9921875,868.8115234,1160.7890625,803.019043z"/>
</g>
<path class="st3" d="M1012.3844604,868.6968994c-1.3409424-20.1491089-5.8615112-35.8983765-9.1307983-47.0586548
	c-2.6676636-9.1063843-7.7921753-24.7277832-19.6663208-48.4633789
	c-10.9313354-21.8510132-18.1333618-31.5795288-37.9278564-65.3201904
	c-30.9041748-52.6776123-40.3331299-59.7481689-49.868103-75.8557739C882.173645,608.9942627,852.5557251,573,852.2445679,573
	c0,0-17.7796631,22.3014526-21.0710449,26.6900024c-4.2142334,5.6188965-42.8444824,58.2965088-58.9989624,84.2841187
	c-34.3693848,55.289978-46.039856,75.4697876-44.2491455,77.260498c2.1071167,2.1071167,13.2122803,0.4072266,36.5231323,7.0236816
	c0.9104004,0.2584229,2.7173462,0.7839355,5.2008667,1.6409912l60.1193237-98.567749L799.026062,784.5206299
	c4.1558228,2.7724609,19.8973389,13.6746216,34.2545166,33.6057739
	c10.1136475,14.0401611,15.1019897,26.4020386,19.6663208,37.9279175
	c4.9549561,12.512207,7.0771484,21.1335449,11.237915,37.2254639c9.3928833,36.3275146,14.0893555,54.491333,16.1544189,60.4036865
	c6.9922485,20.0187378,22.3830566,64.0827637,44.9515991,65.3201904c8.2332764,0.451416,30.2017822-16.8568115,36.5231323-22.475769
	c7.8040161-6.9368896,23.303833-23.7669067,30.9041748-35.1184082
	C1016.21875,926.3102417,1013.5698853,886.5091553,1012.3844604,868.6968994z"/>
<g id="Слой_2">
	<g>
		<path class="st4" d="M793.519043,908.0400391h-11.453125v-64.9394531
			c-1.1806641-0.1572266-2.3613281-0.2958984-3.5419922-0.4140625s-2.3618164-0.1767578-3.5424805-0.1767578
			s-2.3427734,0.0585938-3.4829102,0.1767578c-1.1420898,0.1181641-2.2636719,0.2568359-3.3652344,0.4140625v64.9394531h-11.4526367
			v-61.515625c-4.8818359,2.2841797-9.2504883,5.5107422-13.105957,9.6816406
			c-3.8579102,4.1728516-7.1435547,9.1708984-9.859375,14.9951172c-2.715332,5.8261719-4.7817383,12.4765625-6.1987305,19.9541016
			c-1.4165039,7.4794922-2.125,15.6259766-2.125,24.4414063c0,8.34375,0.9628906,16.1162109,2.8925781,23.3183594
			c1.9277344,7.203125,4.5053711,13.6962891,7.7338867,19.4824219c3.2265625,5.7851563,6.9458008,10.84375,11.1577148,15.171875
			c4.2099609,4.3300781,8.6376953,7.7539063,13.2832031,10.2724609h83.7128906v19.8359375H701.5410156v-19.8359375h32.4697266
			c-5.2744141-3.5419922-10.1542969-7.6337891-14.6411133-12.2792969
			c-4.4863281-4.6435547-8.3828125-9.859375-11.6889648-15.6445313c-3.3061523-5.7861328-5.8852539-12.1025391-7.7338867-18.9511719
			c-1.8500977-6.8476563-2.7744141-14.2460938-2.7744141-22.1972656c0-9.9951172,1.4350586-19.4228516,4.3095703-28.2783203
			c2.8725586-8.8554688,6.9257813-16.8046875,12.1616211-23.8505859
			c5.2338867-7.0429688,11.4916992-12.9873047,18.7729492-17.828125
			c7.2802734-4.8408203,15.3681641-8.2841797,24.2641602-10.3320313v-21.8427734h11.4526367v20.0722656
			c1.0219727-0.0771484,2.0258789-0.1367188,3.0107422-0.1767578c0.9833984-0.0390625,1.9873047-0.0595703,3.0112305-0.0595703
			c2.6748047,0,5.3129883,0.1181641,7.9106445,0.3544922v-20.1904297h11.453125v22.0791016
			c8.5786133,2.0478516,16.3325195,5.3339844,23.2597656,9.859375c6.9257813,4.5273438,12.9086914,10.0175781,17.9472656,16.4707031
			c5.0361328,6.4550781,9.0712891,13.6777344,12.1020508,21.6660156c3.0292969,7.9902344,4.9394531,16.4326172,5.7265625,25.3271484
			h-28.1010742c-0.8671875-15.7431641-3.9755859-28.8486328-9.3276367-39.3183594
			c-5.3540039-10.4677734-12.5561523-17.8291016-21.6069336-22.0791016V908.0400391z"/>
	</g>
</g>
<circle class="st5" cx="850.25" cy="797.25" r="351.75"/>
<polygon class="st0" points="764.2362061,421.7974243 800.7866821,332.7521362 920.3057861,333.1730347 953.7280273,424.4142151 "/>
</svg>
